<svg width="1024" height="1024" viewBox="0 0 1024 1024" fill="none" xmlns="http://www.w3.org/2000/svg">
  <g clip-path="url(#clip0_0_43)">
    <rect width="1024" height="1024" fill="url(#paint0_linear_0_43)" />
    <g filter="url(#filter0_d_0_43)">
      <path
        d="M360.954 411.877C360.954 411.877 323.222 452.548 293.295 475.826C260.525 501.219 198.344 528.11 205.581 551.748C210.956 569.09 259.077 570.277 275.824 565.942C292.571 561.606 364.624 611 364.624 611C364.624 611 702.248 601.555 705.918 597.942C709.536 594.329 757.606 563.052 770.683 563.774C783.76 564.497 813.377 556.652 819.425 541.994C824.542 529.658 794.666 515.103 764.119 495.129C714.188 462.51 698.63 435.206 698.63 435.206C698.63 435.206 728.247 340.239 664.206 274.38C604.3 212.703 481.748 195.826 408.972 270.406C352.27 328.574 360.954 411.877 360.954 411.877Z"
        fill="#FFB903" />
    </g>
    <g filter="url(#filter1_d_0_43)">
      <path d="M329.762 528L332 568.102L302 571L329.762 528Z" fill="#B0B1B3" />
    </g>
    <g filter="url(#filter2_d_0_43)">
      <path d="M698 585L700.198 544L726 569.203L698 585Z" fill="#B0B1B3" />
    </g>
    <g filter="url(#filter3_d_0_43)">
      <path
        d="M521.865 803.993C662.41 803.168 758.418 684.823 762.918 590.559C764.366 560.084 746.158 564.415 746.158 564.415L718.483 554.256L677.722 586.176C677.722 586.176 605.613 534.61 598.319 533.166C591.025 531.722 515.295 581.793 515.295 581.793C515.295 581.793 435.892 531 429.375 531C422.805 531 359.49 578.183 359.49 578.183L312.159 545.49L285.933 565.085L267 571.634C267 571.686 272.121 805.437 521.865 803.993Z"
        fill="#DEDEDE" />
    </g>
    <g filter="url(#filter4_d_0_43)">
      <path
        d="M330.303 681.003C352.212 714.106 370.28 728.145 377.081 733.999C383.882 739.853 394.629 746.173 401.431 738.351C408.232 730.58 400.444 722.291 390.736 712.604C381.027 702.916 358.079 678.568 348.838 664.944C339.596 651.319 329.836 623.604 327.863 617.801C325.89 611.947 318.102 600.291 307.874 605.161C297.646 610.031 301.073 622.671 303.98 630.442C306.94 638.212 312.287 653.806 330.303 681.003Z"
        fill="#FDFDFD" />
    </g>
    <g filter="url(#filter5_d_0_43)">
      <path
        d="M450.647 756.39C452.779 749.338 447.549 741.518 438.966 738.924C430.383 736.33 421.697 739.944 419.566 746.996C417.434 754.048 422.664 761.868 431.247 764.462C439.83 767.056 448.516 763.442 450.647 756.39Z"
        fill="#FDFDFD" />
    </g>
    <g filter="url(#filter6_d_0_43)">
      <path
        d="M342.921 512.015C354.035 520.088 339.493 532.274 334.144 538.084C330.664 541.889 305.892 572.329 272.706 576.185C240.87 579.888 222.485 570.427 209.605 558.806C198.907 549.139 205.451 543.74 213.241 550.476C217.915 554.538 239.052 563.639 266.37 559.269C293.687 554.898 312.176 536.593 319.966 528.366C324.536 523.636 335.598 506.719 342.921 512.015Z"
        fill="#FF8E01" />
    </g>
    <g filter="url(#filter7_d_0_43)">
      <path
        d="M681.136 520.776C675.073 527.922 682.587 537.886 695.231 547.223C707.874 556.56 737.877 579.982 782.752 572.575C818.247 566.68 824.103 537.208 817.781 539.92C811.459 542.633 797.831 555.569 781.301 557.03C764.771 558.491 741.763 555.778 724.404 544.302C710.31 535.017 705.439 530.113 697.148 523.749C694.401 521.611 686.94 513.942 681.136 520.776Z"
        fill="#FF8E01" />
    </g>
    <g filter="url(#filter8_d_0_43)">
      <path
        d="M478.885 333.684C477.552 348.474 469.503 363.317 454.481 360.697C438.485 357.924 433.922 344.52 435.204 329.729C436.537 314.938 447.919 306.053 459.249 307.08C470.579 308.056 480.166 318.893 478.885 333.684Z"
        fill="#2E3030" />
    </g>
    <g filter="url(#filter9_d_0_43)">
      <path
        d="M655.326 370.765C652.424 385.641 643.043 398.632 627.961 395.541C611.843 392.241 608.371 377.26 612.724 359.189C616.3 344.47 629.205 339.285 640.452 341.485C651.75 343.737 658.177 355.889 655.326 370.765Z"
        fill="#2E3030" />
    </g>
    <g filter="url(#filter10_d_0_43)">
      <path
        d="M550.695 350.057C547.374 348.189 493 393.17 493 393.17C493 393.17 519.668 455.635 522.211 455.998C524.753 456.361 577 413.248 577 413.248C577 413.248 553.289 351.509 550.695 350.057Z"
        fill="#FF8C00" />
    </g>
    <g filter="url(#filter11_d_0_43)">
      <path
        d="M483.867 388.26C480.741 394.992 486.276 399.822 497.088 403.47C507.9 407.119 515.382 408.301 515.382 408.301C515.382 408.301 520.455 427.57 528.859 429.78C537.262 431.938 550.483 417.499 550.483 417.499C550.483 417.499 561.295 418.681 565.856 418.938C570.417 419.195 582.664 423.203 583.894 414.107C585.328 403.522 571.852 405.166 567.291 403.984C562.73 402.802 552.123 399.873 552.123 399.873C552.123 399.873 549.253 380.346 541.772 378.188C534.342 376.03 520.352 393.142 520.352 393.142C520.352 393.142 507.388 389.031 503.545 387.849C499.701 386.564 486.942 381.528 483.867 388.26Z"
        fill="#FF5F02" />
    </g>
  </g>
  <defs>
    <filter id="filter0_d_0_43" x="105" y="181" width="815" height="590" filterUnits="userSpaceOnUse"
      color-interpolation-filters="sRGB">
      <feFlood flood-opacity="0" result="BackgroundImageFix" />
      <feColorMatrix in="SourceAlpha" type="matrix" values="0 0 0 0 0 0 0 0 0 0 0 0 0 0 0 0 0 0 127 0"
        result="hardAlpha" />
      <feOffset dy="60" />
      <feGaussianBlur stdDeviation="50" />
      <feComposite in2="hardAlpha" operator="out" />
      <feColorMatrix type="matrix" values="0 0 0 0 0 0 0 0 0 0 0 0 0 0 0 0 0 0 0.12 0" />
      <feBlend mode="normal" in2="BackgroundImageFix" result="effect1_dropShadow_0_43" />
      <feBlend mode="normal" in="SourceGraphic" in2="effect1_dropShadow_0_43" result="shape" />
    </filter>
    <filter id="filter1_d_0_43" x="202" y="488" width="230" height="243" filterUnits="userSpaceOnUse"
      color-interpolation-filters="sRGB">
      <feFlood flood-opacity="0" result="BackgroundImageFix" />
      <feColorMatrix in="SourceAlpha" type="matrix" values="0 0 0 0 0 0 0 0 0 0 0 0 0 0 0 0 0 0 127 0"
        result="hardAlpha" />
      <feOffset dy="60" />
      <feGaussianBlur stdDeviation="50" />
      <feComposite in2="hardAlpha" operator="out" />
      <feColorMatrix type="matrix" values="0 0 0 0 0 0 0 0 0 0 0 0 0 0 0 0 0 0 0.12 0" />
      <feBlend mode="normal" in2="BackgroundImageFix" result="effect1_dropShadow_0_43" />
      <feBlend mode="normal" in="SourceGraphic" in2="effect1_dropShadow_0_43" result="shape" />
    </filter>
    <filter id="filter2_d_0_43" x="598" y="504" width="228" height="241" filterUnits="userSpaceOnUse"
      color-interpolation-filters="sRGB">
      <feFlood flood-opacity="0" result="BackgroundImageFix" />
      <feColorMatrix in="SourceAlpha" type="matrix" values="0 0 0 0 0 0 0 0 0 0 0 0 0 0 0 0 0 0 127 0"
        result="hardAlpha" />
      <feOffset dy="60" />
      <feGaussianBlur stdDeviation="50" />
      <feComposite in2="hardAlpha" operator="out" />
      <feColorMatrix type="matrix" values="0 0 0 0 0 0 0 0 0 0 0 0 0 0 0 0 0 0 0.12 0" />
      <feBlend mode="normal" in2="BackgroundImageFix" result="effect1_dropShadow_0_43" />
      <feBlend mode="normal" in="SourceGraphic" in2="effect1_dropShadow_0_43" result="shape" />
    </filter>
    <filter id="filter3_d_0_43" x="167" y="491" width="696" height="473" filterUnits="userSpaceOnUse"
      color-interpolation-filters="sRGB">
      <feFlood flood-opacity="0" result="BackgroundImageFix" />
      <feColorMatrix in="SourceAlpha" type="matrix" values="0 0 0 0 0 0 0 0 0 0 0 0 0 0 0 0 0 0 127 0"
        result="hardAlpha" />
      <feOffset dy="60" />
      <feGaussianBlur stdDeviation="50" />
      <feComposite in2="hardAlpha" operator="out" />
      <feColorMatrix type="matrix" values="0 0 0 0 0 0 0 0 0 0 0 0 0 0 0 0 0 0 0.12 0" />
      <feBlend mode="normal" in2="BackgroundImageFix" result="effect1_dropShadow_0_43" />
      <feBlend mode="normal" in="SourceGraphic" in2="effect1_dropShadow_0_43" result="shape" />
    </filter>
    <filter id="filter4_d_0_43" x="201" y="564" width="303" height="338" filterUnits="userSpaceOnUse"
      color-interpolation-filters="sRGB">
      <feFlood flood-opacity="0" result="BackgroundImageFix" />
      <feColorMatrix in="SourceAlpha" type="matrix" values="0 0 0 0 0 0 0 0 0 0 0 0 0 0 0 0 0 0 127 0"
        result="hardAlpha" />
      <feOffset dy="60" />
      <feGaussianBlur stdDeviation="50" />
      <feComposite in2="hardAlpha" operator="out" />
      <feColorMatrix type="matrix" values="0 0 0 0 0 0 0 0 0 0 0 0 0 0 0 0 0 0 0.12 0" />
      <feBlend mode="normal" in2="BackgroundImageFix" result="effect1_dropShadow_0_43" />
      <feBlend mode="normal" in="SourceGraphic" in2="effect1_dropShadow_0_43" result="shape" />
    </filter>
    <filter id="filter5_d_0_43" x="319.09" y="698.084" width="232.033" height="227.219" filterUnits="userSpaceOnUse"
      color-interpolation-filters="sRGB">
      <feFlood flood-opacity="0" result="BackgroundImageFix" />
      <feColorMatrix in="SourceAlpha" type="matrix" values="0 0 0 0 0 0 0 0 0 0 0 0 0 0 0 0 0 0 127 0"
        result="hardAlpha" />
      <feOffset dy="60" />
      <feGaussianBlur stdDeviation="50" />
      <feComposite in2="hardAlpha" operator="out" />
      <feColorMatrix type="matrix" values="0 0 0 0 0 0 0 0 0 0 0 0 0 0 0 0 0 0 0.12 0" />
      <feBlend mode="normal" in2="BackgroundImageFix" result="effect1_dropShadow_0_43" />
      <feBlend mode="normal" in="SourceGraphic" in2="effect1_dropShadow_0_43" result="shape" />
    </filter>
    <filter id="filter6_d_0_43" x="104" y="471" width="343" height="266" filterUnits="userSpaceOnUse"
      color-interpolation-filters="sRGB">
      <feFlood flood-opacity="0" result="BackgroundImageFix" />
      <feColorMatrix in="SourceAlpha" type="matrix" values="0 0 0 0 0 0 0 0 0 0 0 0 0 0 0 0 0 0 127 0"
        result="hardAlpha" />
      <feOffset dy="60" />
      <feGaussianBlur stdDeviation="50" />
      <feComposite in2="hardAlpha" operator="out" />
      <feColorMatrix type="matrix" values="0 0 0 0 0 0 0 0 0 0 0 0 0 0 0 0 0 0 0.12 0" />
      <feBlend mode="normal" in2="BackgroundImageFix" result="effect1_dropShadow_0_43" />
      <feBlend mode="normal" in="SourceGraphic" in2="effect1_dropShadow_0_43" result="shape" />
    </filter>
    <filter id="filter7_d_0_43" x="579" y="478" width="341" height="256" filterUnits="userSpaceOnUse"
      color-interpolation-filters="sRGB">
      <feFlood flood-opacity="0" result="BackgroundImageFix" />
      <feColorMatrix in="SourceAlpha" type="matrix" values="0 0 0 0 0 0 0 0 0 0 0 0 0 0 0 0 0 0 127 0"
        result="hardAlpha" />
      <feOffset dy="60" />
      <feGaussianBlur stdDeviation="50" />
      <feComposite in2="hardAlpha" operator="out" />
      <feColorMatrix type="matrix" values="0 0 0 0 0 0 0 0 0 0 0 0 0 0 0 0 0 0 0.12 0" />
      <feBlend mode="normal" in2="BackgroundImageFix" result="effect1_dropShadow_0_43" />
      <feBlend mode="normal" in="SourceGraphic" in2="effect1_dropShadow_0_43" result="shape" />
    </filter>
    <filter id="filter8_d_0_43" x="335" y="267" width="244" height="254" filterUnits="userSpaceOnUse"
      color-interpolation-filters="sRGB">
      <feFlood flood-opacity="0" result="BackgroundImageFix" />
      <feColorMatrix in="SourceAlpha" type="matrix" values="0 0 0 0 0 0 0 0 0 0 0 0 0 0 0 0 0 0 127 0"
        result="hardAlpha" />
      <feOffset dy="60" />
      <feGaussianBlur stdDeviation="50" />
      <feComposite in2="hardAlpha" operator="out" />
      <feColorMatrix type="matrix" values="0 0 0 0 0 0 0 0 0 0 0 0 0 0 0 0 0 0 0.12 0" />
      <feBlend mode="normal" in2="BackgroundImageFix" result="effect1_dropShadow_0_43" />
      <feBlend mode="normal" in="SourceGraphic" in2="effect1_dropShadow_0_43" result="shape" />
    </filter>
    <filter id="filter9_d_0_43" x="511" y="301" width="245" height="255" filterUnits="userSpaceOnUse"
      color-interpolation-filters="sRGB">
      <feFlood flood-opacity="0" result="BackgroundImageFix" />
      <feColorMatrix in="SourceAlpha" type="matrix" values="0 0 0 0 0 0 0 0 0 0 0 0 0 0 0 0 0 0 127 0"
        result="hardAlpha" />
      <feOffset dy="60" />
      <feGaussianBlur stdDeviation="50" />
      <feComposite in2="hardAlpha" operator="out" />
      <feColorMatrix type="matrix" values="0 0 0 0 0 0 0 0 0 0 0 0 0 0 0 0 0 0 0.12 0" />
      <feBlend mode="normal" in2="BackgroundImageFix" result="effect1_dropShadow_0_43" />
      <feBlend mode="normal" in="SourceGraphic" in2="effect1_dropShadow_0_43" result="shape" />
    </filter>
    <filter id="filter10_d_0_43" x="393" y="310" width="284" height="306" filterUnits="userSpaceOnUse"
      color-interpolation-filters="sRGB">
      <feFlood flood-opacity="0" result="BackgroundImageFix" />
      <feColorMatrix in="SourceAlpha" type="matrix" values="0 0 0 0 0 0 0 0 0 0 0 0 0 0 0 0 0 0 127 0"
        result="hardAlpha" />
      <feOffset dy="60" />
      <feGaussianBlur stdDeviation="50" />
      <feComposite in2="hardAlpha" operator="out" />
      <feColorMatrix type="matrix" values="0 0 0 0 0 0 0 0 0 0 0 0 0 0 0 0 0 0 0.12 0" />
      <feBlend mode="normal" in2="BackgroundImageFix" result="effect1_dropShadow_0_43" />
      <feBlend mode="normal" in="SourceGraphic" in2="effect1_dropShadow_0_43" result="shape" />
    </filter>
    <filter id="filter11_d_0_43" x="383" y="338" width="301" height="252" filterUnits="userSpaceOnUse"
      color-interpolation-filters="sRGB">
      <feFlood flood-opacity="0" result="BackgroundImageFix" />
      <feColorMatrix in="SourceAlpha" type="matrix" values="0 0 0 0 0 0 0 0 0 0 0 0 0 0 0 0 0 0 127 0"
        result="hardAlpha" />
      <feOffset dy="60" />
      <feGaussianBlur stdDeviation="50" />
      <feComposite in2="hardAlpha" operator="out" />
      <feColorMatrix type="matrix" values="0 0 0 0 0 0 0 0 0 0 0 0 0 0 0 0 0 0 0.12 0" />
      <feBlend mode="normal" in2="BackgroundImageFix" result="effect1_dropShadow_0_43" />
      <feBlend mode="normal" in="SourceGraphic" in2="effect1_dropShadow_0_43" result="shape" />
    </filter>
    <linearGradient id="paint0_linear_0_43" x1="512" y1="0" x2="512" y2="1024" gradientUnits="userSpaceOnUse">
      <stop stop-color="#3486F4" />
      <stop offset="1" stop-color="#2AD1FB" />
    </linearGradient>
    <clipPath id="clip0_0_43">
      <rect width="1024" height="1024" fill="white" />
    </clipPath>
  </defs>
</svg>